<svg xmlns="http://www.w3.org/2000/svg" xmlns:xlink="http://www.w3.org/1999/xlink" viewBox="0 0 756.4 211.4"><defs><style>.cls-1{fill:none;}.cls-2{clip-path:url(#clip-path);}.cls-3{fill-rule:evenodd;}</style><clipPath id="clip-path"><rect class="cls-1" width="777" height="211.4"/></clipPath></defs><title>diamir_logo</title><g id="Ebene_2" data-name="Ebene 2"><g id="Ebene_1-2" data-name="Ebene 1"><g class="cls-2"><path class="cls-3" d="M211.4,0H0V211.4H211.4ZM68,30.2H30.2V90.6H68V60.4h75.5V151H68V120.8H30.2v60.4H143.5V151h37.8V60.4H143.5V30.2Z"/><path d="M747.7,64V58.1h3a3.09,3.09,0,0,1,.8.2,1.34,1.34,0,0,1,.7.6,1.8,1.8,0,0,1,.3,1.1,2,2,0,0,1-.3,1.1,2.7,2.7,0,0,1-.8.7,1.34,1.34,0,0,1-.8.2h-2.2V61h1.8a.86.86,0,0,0,.6-.3,1,1,0,0,0,.3-.8c0-.4-.1-.6-.3-.7a1.69,1.69,0,0,0-.5-.2H749v5Zm3.5-2.8,1.5,2.8h-1.4l-1.4-2.8Zm-1.3,6.3a7,7,0,0,1-2.5-.5,6.43,6.43,0,0,1-3.5-3.5,6.5,6.5,0,0,1,0-5,6.43,6.43,0,0,1,3.5-3.5,6.5,6.5,0,0,1,5,0,6.43,6.43,0,0,1,3.5,3.5,6.5,6.5,0,0,1,0,5,6.43,6.43,0,0,1-3.5,3.5A7,7,0,0,1,749.9,67.5Zm0-1.5a4.51,4.51,0,0,0,2.5-.7,5.07,5.07,0,0,0,2.5-4.3,4.51,4.51,0,0,0-.7-2.5,5.07,5.07,0,0,0-4.3-2.5,4.51,4.51,0,0,0-2.5.7,5.07,5.07,0,0,0-2.5,4.3,4.51,4.51,0,0,0,.7,2.5,5.16,5.16,0,0,0,1.8,1.8A5.53,5.53,0,0,0,749.9,66Z"/><path d="M662.1,151.6V61.2h48a34.49,34.49,0,0,1,16.4,3.7A26.82,26.82,0,0,1,737.7,75a27.37,27.37,0,0,1,4,14.8,27.16,27.16,0,0,1-4.3,15.1,30.73,30.73,0,0,1-11.6,10.7,33.58,33.58,0,0,1-16.3,3.9H680.7v32H662.1Zm61.6,0-27.9-40.8,20.3-3.2,30.5,44.2Zm-42.9-47.8h27a15.31,15.31,0,0,0,7.2-1.7,12.65,12.65,0,0,0,6.9-11.4A11.47,11.47,0,0,0,720,84a12.41,12.41,0,0,0-5.4-4.4,19.23,19.23,0,0,0-7.7-1.5H680.8Z"/><rect x="623" y="60.4" width="19.6" height="91.4"/><path d="M386.4,151.6l41.2-90.4h18.7l41.1,90.4H467.1L442.7,98c-.7-1.7-1.4-3.5-2.2-5.3s-1.5-3.6-2.3-5.4-1.4-3.7-2.1-5.6-1.2-3.7-1.7-5.4l4.3-.1Q438,79,436.9,81.9c-.7,1.9-1.4,3.7-2.2,5.6s-1.4,3.6-2.2,5.4-1.5,3.7-2.3,5.6l-24.4,53.2H386.4Zm18.7-18.2,6.6-15.6h49.5l4.1,15.6Zm97.1,18.2V61.2h17.7l38.2,51.9H547.5l38.3-51.9h17.4v90.4h-19V119.8c0-7.4.2-14.2.5-20.4a155.47,155.47,0,0,1,2.1-19l2.2,6.3-32,41.6h-8.5l-32-41.6,2.2-6.3c.9,6.2,1.6,12.4,1.9,18.7s.6,13.1.6,20.7v31.8Z"/><rect x="351.1" y="60.4" width="19.6" height="91.4"/><path d="M241.5,151.6V61.2h43.6a58.9,58.9,0,0,1,20.8,3.5,43.23,43.23,0,0,1,15.5,9.8,41.07,41.07,0,0,1,9.8,14.3,46.37,46.37,0,0,1,3.4,17.6,45.38,45.38,0,0,1-3.4,17.7,41.83,41.83,0,0,1-9.8,14.5,44.43,44.43,0,0,1-15.5,9.7,60.87,60.87,0,0,1-20.8,3.4H241.5Zm19.3-14.1-2.1-3.4h25.7a35.1,35.1,0,0,0,13.2-2.2,24.29,24.29,0,0,0,15-14.8,31.63,31.63,0,0,0,1.8-10.7,30.81,30.81,0,0,0-1.8-10.7,23.25,23.25,0,0,0-5.6-8.8,26,26,0,0,0-9.4-6.1,35.1,35.1,0,0,0-13.2-2.2H258.3l2.5-3.1Z"/></g></g></g></svg>